<svg width="7765" height="2160" viewBox="0 0 7765 2160" fill="none" xmlns="http://www.w3.org/2000/svg">
<g clip-path="url(#clip0_688_202)">
<rect width="2159.7" height="2159.7" transform="translate(0 0.000244141)" fill="#EF1E0C"/>
<path fill-rule="evenodd" clip-rule="evenodd" d="M1072.45 999.182H572.81V866.041H628.644V516.724H565.652V383.582H1072.45V999.182ZM936.444 864.609V518.155H766.08V864.609H936.444Z" fill="white"/>
<path fill-rule="evenodd" clip-rule="evenodd" d="M1154.52 1003.48H1594.03V387.877H1154.52V1003.48ZM1458.02 523.881V868.903H1286.23V523.881H1458.02Z" fill="white"/>
<path fill-rule="evenodd" clip-rule="evenodd" d="M1154.52 1776.19H1594.03V1160.59H1154.52V1776.19ZM1458.02 1296.59V1641.62H1286.23V1296.59H1458.02Z" fill="white"/>
<path d="M573.913 1770.46H1075.13V1295.02H937.694V1619.23H573.93V1635.89H573.913V1770.46Z" fill="white"/>
<path d="M937.661 1294.98H574.544V1152H937.661V1294.98Z" fill="white"/>
<path d="M3513.76 868.965H3130.93C3128.56 889.145 3127.96 908.731 3129.15 927.724C3130.34 946.717 3130.93 966.304 3130.93 986.484H3360.63V1157.42H3132.71V1469.03H2958.21L2963.56 1461.9V1162.76C2944.56 1156.83 2924.98 1156.83 2904.8 1162.76V995.387C2907.17 993.013 2910.73 991.826 2915.48 991.826C2921.42 991.826 2927.35 991.826 2933.29 991.826C2939.22 991.826 2944.56 991.826 2949.31 991.826C2955.25 990.639 2959.4 987.671 2961.78 982.923C2962.96 935.44 2962.37 888.551 2960 842.256C2958.81 794.773 2958.21 747.884 2958.21 701.589L3513.76 701.589V868.965Z" fill="white"/>
<path d="M4289.18 1470.81H4059.48L3828.01 1248.23V1479.71H3658.85V881.429C3631.55 880.242 3604.84 880.242 3578.72 881.429V710.492H4209.05V1187.69H4009.63L4289.18 1470.81ZM4039.9 1016.75V879.648H3828.01V1016.75H4039.9Z" fill="white"/>
<path d="M4990.19 1210.84H4913.63V1474.37H4742.69V1212.62H4530.8C4527.24 1254.17 4525.46 1296.9 4525.46 1340.82C4526.65 1384.74 4528.43 1429.26 4530.8 1474.37H4359.86V1214.4C4336.12 1210.84 4311.19 1210.84 4285.08 1214.4V1043.46H4356.3V705.15H4910.07V1041.68C4936.18 1044.06 4962.89 1044.06 4990.19 1041.68V1210.84ZM4740.91 1041.68V874.307H4529.02V1041.68H4740.91Z" fill="white"/>
<path d="M5831.37 1469.03H5658.65V945.53C5636.1 966.897 5613.54 989.452 5590.99 1013.19C5569.62 1036.93 5547.07 1061.27 5523.33 1086.2C5524.52 1149.11 5523.92 1212.62 5521.55 1276.72C5520.36 1340.82 5519.77 1404.92 5519.77 1469.03H5355.95V1104C5355.95 1094.51 5350.61 1083.23 5339.93 1070.17C5330.43 1055.93 5318.56 1041.68 5304.31 1027.44C5290.07 1013.19 5275.23 998.948 5259.8 984.703C5245.56 970.459 5233.68 958.588 5224.19 949.092V1469.03H5053.25V705.15H5211.72L5437.86 922.383L5667.56 705.15H5831.37V1469.03Z" fill="white"/>
<path d="M6532.34 1469.03H5982.14V1159.2C5972.64 1158.01 5963.14 1157.42 5953.65 1157.42C5944.15 1157.42 5934.65 1158.61 5925.16 1160.98V990.045H5976.8V701.589L6532.34 701.589V868.965H6145.95V988.265H6379.21V1157.42H6145.95V1299.87H6532.34V1469.03Z" fill="white"/>
<path d="M7311.32 1470.81H7081.63L6850.15 1248.23V1479.71H6680.99V881.429C6653.69 880.242 6626.98 880.242 6600.87 881.429V710.492H7231.2V1187.69H7031.77L7311.32 1470.81ZM7062.04 1016.75V879.648H6850.15V1016.75H7062.04Z" fill="white"/>
</g>
<defs>
<clipPath id="clip0_688_202">
<rect width="2159.7" height="7764.86" fill="white" transform="translate(0 2159.7) rotate(-90)"/>
</clipPath>
</defs>
</svg>
